<mxfile host="app.diagrams.net" modified="2023-11-13T13:07:31.654Z" agent="Mozilla/5.0 (Windows NT 10.0; Win64; x64; rv:109.0) Gecko/20100101 Firefox/119.0" etag="4IibVhYZ4iHuovqbd-M1" version="22.1.0" type="device">
  <diagram name="Seite-1" id="Rr-d0F5pJPxs6W28Mpnu">
    <mxGraphModel dx="753" dy="390" grid="1" gridSize="10" guides="1" tooltips="1" connect="1" arrows="1" fold="1" page="1" pageScale="1" pageWidth="827" pageHeight="1169" math="0" shadow="0">
      <root>
        <mxCell id="0" />
        <mxCell id="1" parent="0" />
        <mxCell id="2quhHRqe1JpTrsq5nZVG-1" value="&lt;div&gt;Ethic Canvas&lt;/div&gt;&lt;div&gt;&lt;b&gt;Netflix&lt;/b&gt;&lt;br&gt;&lt;/div&gt;" style="shape=hexagon;perimeter=hexagonPerimeter2;whiteSpace=wrap;html=1;fixedSize=1;" vertex="1" parent="1">
          <mxGeometry x="344.5" y="10" width="120" height="80" as="geometry" />
        </mxCell>
        <mxCell id="2quhHRqe1JpTrsq5nZVG-2" value="&lt;p align=&quot;center&quot; style=&quot;line-height: 10%; font-size: 11px;&quot;&gt;&lt;b&gt;&lt;font style=&quot;font-size: 11px;&quot;&gt;Individuals Affected&lt;/font&gt;&lt;/b&gt;&lt;/p&gt;&lt;p align=&quot;center&quot; style=&quot;line-height: 10%; font-size: 11px;&quot;&gt;&lt;font style=&quot;font-size: 11px;&quot;&gt;&lt;br style=&quot;font-size: 11px;&quot;&gt;&lt;/font&gt;&lt;/p&gt;&lt;div align=&quot;center&quot;&gt;&lt;br&gt;&lt;/div&gt;&lt;div align=&quot;center&quot;&gt;&lt;br&gt;&lt;/div&gt;&lt;div align=&quot;center&quot;&gt;&lt;br&gt;&lt;/div&gt;&lt;div align=&quot;center&quot;&gt;&lt;br&gt;&lt;/div&gt;&lt;div align=&quot;center&quot;&gt;&lt;br&gt;&lt;/div&gt;" style="whiteSpace=wrap;html=1;aspect=fixed;align=center;fillColor=#e1d5e7;strokeWidth=1;perimeterSpacing=0;rounded=1;arcSize=20;verticalAlign=top;labelPosition=center;verticalLabelPosition=middle;fontSize=11;labelBorderColor=none;fontStyle=0;strokeColor=#9673a6;gradientColor=none;fontFamily=Verdana;movable=1;resizable=1;rotatable=1;deletable=1;editable=1;locked=0;connectable=1;rotation=0;" vertex="1" parent="1">
          <mxGeometry x="28" y="170" width="150" height="310" as="geometry" />
        </mxCell>
        <mxCell id="2quhHRqe1JpTrsq5nZVG-3" value="&lt;p style=&quot;line-height: 10%; font-size: 11px;&quot;&gt;&lt;b&gt;&lt;font style=&quot;font-size: 11px;&quot;&gt;Groups Affected&lt;/font&gt;&lt;/b&gt;&lt;/p&gt;&lt;p style=&quot;line-height: 10%; font-size: 11px;&quot;&gt;&lt;font style=&quot;font-size: 11px;&quot;&gt;&lt;br&gt;&lt;/font&gt;&lt;/p&gt;&lt;p style=&quot;line-height: 10%; font-size: 11px;&quot;&gt;&lt;font style=&quot;font-size: 11px;&quot;&gt;&lt;br style=&quot;font-size: 11px;&quot;&gt;&lt;/font&gt;&lt;/p&gt;&lt;div&gt;&lt;br&gt;&lt;/div&gt;&lt;div&gt;&lt;br&gt;&lt;/div&gt;&lt;div&gt;&lt;br&gt;&lt;/div&gt;" style="whiteSpace=wrap;html=1;aspect=fixed;align=center;fillColor=#e1d5e7;strokeWidth=1;perimeterSpacing=0;rounded=1;arcSize=20;verticalAlign=top;labelPosition=center;verticalLabelPosition=middle;fontSize=11;labelBorderColor=none;fontStyle=0;strokeColor=#9673a6;gradientColor=none;fontFamily=Verdana;horizontal=1;rotation=0;" vertex="1" parent="1">
          <mxGeometry x="648" y="170" width="150" height="310" as="geometry" />
        </mxCell>
        <mxCell id="2quhHRqe1JpTrsq5nZVG-4" value="&lt;p style=&quot;line-height: 10%; font-size: 11px;&quot;&gt;&lt;b&gt;Behavior&lt;/b&gt;&lt;br&gt;&lt;/p&gt;&lt;p style=&quot;line-height: 10%; font-size: 11px;&quot;&gt;&lt;font style=&quot;font-size: 11px;&quot;&gt;&lt;br&gt;&lt;/font&gt;&lt;/p&gt;&lt;p style=&quot;line-height: 10%; font-size: 11px;&quot;&gt;&lt;font style=&quot;font-size: 11px;&quot;&gt;&lt;br style=&quot;font-size: 11px;&quot;&gt;&lt;/font&gt;&lt;/p&gt;&amp;nbsp;&lt;div&gt;&lt;br&gt;&lt;/div&gt;&lt;div&gt;&lt;br&gt;&lt;/div&gt;" style="whiteSpace=wrap;html=1;aspect=fixed;align=center;fillColor=#dae8fc;strokeWidth=1;perimeterSpacing=0;rounded=1;arcSize=20;verticalAlign=top;labelPosition=center;verticalLabelPosition=middle;fontSize=11;labelBorderColor=none;fontStyle=0;strokeColor=#6c8ebf;fontFamily=Verdana;horizontal=1;" vertex="1" parent="1">
          <mxGeometry x="188" y="170" width="150" height="150" as="geometry" />
        </mxCell>
        <mxCell id="2quhHRqe1JpTrsq5nZVG-7" value="&lt;p style=&quot;line-height: 10%; font-size: 11px;&quot;&gt;Relations&lt;br&gt;&lt;/p&gt;&lt;p style=&quot;line-height: 10%; font-size: 11px;&quot;&gt;&lt;font style=&quot;font-size: 11px;&quot;&gt;&lt;br&gt;&lt;/font&gt;&lt;/p&gt;&lt;p style=&quot;line-height: 10%; font-size: 11px;&quot;&gt;&lt;font style=&quot;font-size: 11px;&quot;&gt;&lt;br style=&quot;font-size: 11px;&quot;&gt;&lt;/font&gt;&lt;/p&gt;&lt;div&gt;&lt;br&gt;&lt;/div&gt;&lt;div&gt;&lt;br&gt;&lt;/div&gt;&lt;div&gt;&lt;br&gt;&lt;/div&gt;" style="whiteSpace=wrap;html=1;aspect=fixed;align=center;fillColor=#d5e8d4;strokeWidth=1;perimeterSpacing=0;rounded=1;arcSize=20;verticalAlign=top;labelPosition=center;verticalLabelPosition=middle;fontSize=11;labelBorderColor=none;fontStyle=0;strokeColor=#82b366;fontFamily=Verdana;horizontal=1;" vertex="1" parent="1">
          <mxGeometry x="188" y="330" width="150" height="150" as="geometry" />
        </mxCell>
        <mxCell id="2quhHRqe1JpTrsq5nZVG-9" value="&lt;p style=&quot;line-height: 10%; font-size: 11px;&quot;&gt;&lt;font color=&quot;#0d0d0d&quot;&gt;&lt;b&gt;Worldviews&lt;/b&gt;&lt;br&gt;&lt;/font&gt;&lt;/p&gt;&lt;p style=&quot;line-height: 10%; font-size: 11px;&quot;&gt;&lt;font color=&quot;#0d0d0d&quot; style=&quot;font-size: 11px;&quot;&gt;&lt;br&gt;&lt;/font&gt;&lt;/p&gt;&lt;p style=&quot;line-height: 10%; font-size: 11px;&quot;&gt;&lt;font color=&quot;#0d0d0d&quot; style=&quot;font-size: 11px;&quot;&gt;&lt;br style=&quot;font-size: 11px;&quot;&gt;&lt;/font&gt;&lt;/p&gt;&lt;div&gt;&lt;font color=&quot;#0d0d0d&quot;&gt;&lt;br&gt;&lt;/font&gt;&lt;/div&gt;&lt;div&gt;&lt;font color=&quot;#0d0d0d&quot;&gt;&lt;br&gt;&lt;/font&gt;&lt;/div&gt;&lt;div&gt;&lt;font color=&quot;#0d0d0d&quot;&gt;&lt;br&gt;&lt;/font&gt;&lt;/div&gt;" style="whiteSpace=wrap;html=1;aspect=fixed;align=center;fillColor=#60a917;strokeWidth=1;perimeterSpacing=0;rounded=1;arcSize=20;verticalAlign=top;labelPosition=center;verticalLabelPosition=middle;fontSize=11;labelBorderColor=none;fontStyle=0;strokeColor=#2D7600;fontFamily=Verdana;horizontal=1;fontColor=#ffffff;" vertex="1" parent="1">
          <mxGeometry x="488" y="170" width="150" height="150" as="geometry" />
        </mxCell>
        <mxCell id="2quhHRqe1JpTrsq5nZVG-10" value="&lt;div&gt;&lt;font color=&quot;#141414&quot;&gt;Group Conflicts&lt;/font&gt;&lt;/div&gt;&lt;div&gt;&lt;font color=&quot;#141414&quot;&gt;&lt;br&gt;&lt;/font&gt;&lt;/div&gt;" style="whiteSpace=wrap;html=1;aspect=fixed;align=center;fillColor=#6d8764;strokeWidth=1;perimeterSpacing=0;rounded=1;arcSize=20;verticalAlign=top;labelPosition=center;verticalLabelPosition=middle;fontSize=11;labelBorderColor=none;fontStyle=0;strokeColor=#3A5431;fontFamily=Verdana;horizontal=1;fontColor=#ffffff;" vertex="1" parent="1">
          <mxGeometry x="488" y="330" width="150" height="150" as="geometry" />
        </mxCell>
        <mxCell id="2quhHRqe1JpTrsq5nZVG-12" value="What can we do?" style="whiteSpace=wrap;html=1;aspect=fixed;rounded=1;glass=0;rotation=0;fillColor=#d0cee2;strokeColor=#56517e;verticalAlign=top;" vertex="1" parent="1">
          <mxGeometry x="348" y="170" width="130" height="310" as="geometry" />
        </mxCell>
        <mxCell id="2quhHRqe1JpTrsq5nZVG-16" value="Service Failure" style="rounded=1;whiteSpace=wrap;html=1;fillColor=#bac8d3;strokeColor=#23445d;verticalAlign=top;" vertex="1" parent="1">
          <mxGeometry x="28" y="500" width="370" height="120" as="geometry" />
        </mxCell>
        <mxCell id="2quhHRqe1JpTrsq5nZVG-17" value="Problematic Use of Resources" style="rounded=1;whiteSpace=wrap;html=1;fillColor=#bac8d3;strokeColor=#23445d;verticalAlign=top;" vertex="1" parent="1">
          <mxGeometry x="418" y="500" width="380" height="120" as="geometry" />
        </mxCell>
        <UserObject label="%date{ddd mmm dd yyyy HH:MM:ss}%" placeholders="1" id="2quhHRqe1JpTrsq5nZVG-19">
          <mxCell style="text;html=1;strokeColor=none;fillColor=none;align=center;verticalAlign=middle;whiteSpace=wrap;overflow=hidden;" vertex="1" parent="1">
            <mxGeometry x="667" width="160" height="20" as="geometry" />
          </mxCell>
        </UserObject>
        <mxCell id="2quhHRqe1JpTrsq5nZVG-24" value="" style="line;strokeWidth=1;fillColor=none;align=left;verticalAlign=middle;spacingTop=-1;spacingLeft=3;spacingRight=3;rotatable=0;labelPosition=right;points=[];portConstraint=eastwest;strokeColor=inherit;" vertex="1" parent="1">
          <mxGeometry x="39" y="200" width="130" height="8" as="geometry" />
        </mxCell>
        <mxCell id="2quhHRqe1JpTrsq5nZVG-25" value="" style="line;strokeWidth=1;fillColor=none;align=left;verticalAlign=middle;spacingTop=-1;spacingLeft=3;spacingRight=3;rotatable=0;labelPosition=right;points=[];portConstraint=eastwest;strokeColor=inherit;" vertex="1" parent="1">
          <mxGeometry x="198" y="200" width="130" height="8" as="geometry" />
        </mxCell>
        <mxCell id="2quhHRqe1JpTrsq5nZVG-26" value="" style="line;strokeWidth=1;fillColor=none;align=left;verticalAlign=middle;spacingTop=-1;spacingLeft=3;spacingRight=3;rotatable=0;labelPosition=right;points=[];portConstraint=eastwest;strokeColor=inherit;" vertex="1" parent="1">
          <mxGeometry x="357.5" y="200" width="111" height="8" as="geometry" />
        </mxCell>
        <mxCell id="2quhHRqe1JpTrsq5nZVG-28" value="" style="line;strokeWidth=1;fillColor=none;align=left;verticalAlign=middle;spacingTop=-1;spacingLeft=3;spacingRight=3;rotatable=0;labelPosition=right;points=[];portConstraint=eastwest;strokeColor=inherit;" vertex="1" parent="1">
          <mxGeometry x="498" y="200" width="130" height="8" as="geometry" />
        </mxCell>
        <mxCell id="2quhHRqe1JpTrsq5nZVG-29" value="" style="line;strokeWidth=1;fillColor=none;align=left;verticalAlign=middle;spacingTop=-1;spacingLeft=3;spacingRight=3;rotatable=0;labelPosition=right;points=[];portConstraint=eastwest;strokeColor=inherit;" vertex="1" parent="1">
          <mxGeometry x="658" y="200" width="130" height="8" as="geometry" />
        </mxCell>
        <mxCell id="2quhHRqe1JpTrsq5nZVG-30" value="" style="line;strokeWidth=1;fillColor=none;align=left;verticalAlign=middle;spacingTop=-1;spacingLeft=3;spacingRight=3;rotatable=0;labelPosition=right;points=[];portConstraint=eastwest;strokeColor=inherit;" vertex="1" parent="1">
          <mxGeometry x="498" y="350" width="130" height="8" as="geometry" />
        </mxCell>
        <mxCell id="2quhHRqe1JpTrsq5nZVG-31" value="" style="line;strokeWidth=1;fillColor=none;align=left;verticalAlign=middle;spacingTop=-1;spacingLeft=3;spacingRight=3;rotatable=0;labelPosition=right;points=[];portConstraint=eastwest;strokeColor=inherit;" vertex="1" parent="1">
          <mxGeometry x="198" y="358" width="130" height="8" as="geometry" />
        </mxCell>
        <mxCell id="2quhHRqe1JpTrsq5nZVG-34" value="" style="line;strokeWidth=1;fillColor=none;align=left;verticalAlign=middle;spacingTop=-1;spacingLeft=3;spacingRight=3;rotatable=0;labelPosition=right;points=[];portConstraint=eastwest;strokeColor=inherit;" vertex="1" parent="1">
          <mxGeometry x="148" y="520" width="130" height="8" as="geometry" />
        </mxCell>
        <mxCell id="2quhHRqe1JpTrsq5nZVG-35" value="" style="line;strokeWidth=1;fillColor=none;align=left;verticalAlign=middle;spacingTop=-1;spacingLeft=3;spacingRight=3;rotatable=0;labelPosition=right;points=[];portConstraint=eastwest;strokeColor=inherit;" vertex="1" parent="1">
          <mxGeometry x="510" y="520" width="196" height="8" as="geometry" />
        </mxCell>
        <mxCell id="2quhHRqe1JpTrsq5nZVG-36" value="Namen: Dennis Schmidt, Tjark Peylo, Joel Brian Burchard" style="text;html=1;align=center;verticalAlign=middle;resizable=0;points=[];autosize=1;strokeColor=none;fillColor=none;fontSize=9;" vertex="1" parent="1">
          <mxGeometry x="4" width="270" height="20" as="geometry" />
        </mxCell>
      </root>
    </mxGraphModel>
  </diagram>
</mxfile>
